<svg version="1.1" xmlns="http://www.w3.org/2000/svg" viewBox="0 0 223.72280474917895 248.66427557727079" width="223.72280474917895" height="248.66427557727079" filter="invert(93%) hue-rotate(180deg)" class="excalidraw-svg"><!-- svg-source:excalidraw --><metadata></metadata><defs><style class="style-fonts">
      </style></defs><rect x="0" y="0" width="223.72280474917895" height="248.66427557727079" fill="#ffffff"></rect><g stroke-linecap="round"><g transform="translate(64.60047967389076 10.789420502197714) rotate(0 0.4747973317872436 99.4677679953065)"><path d="M0 0 C0.16 33.16, 0.79 165.78, 0.95 198.94 M0 0 C0.16 33.16, 0.79 165.78, 0.95 198.94" stroke="#1e1e1e" stroke-width="4" fill="none"></path></g></g><mask></mask><g stroke-linecap="round"><g transform="translate(10 10) rotate(0 101.74095603058697 0.5283435331840707)"><path d="M0 0 C33.91 0.18, 169.57 0.88, 203.48 1.06 M0 0 C33.91 0.18, 169.57 0.88, 203.48 1.06" stroke="#1e1e1e" stroke-width="4" fill="none"></path></g></g><mask></mask><g stroke-linecap="round"><g transform="translate(66.02485355758617 210.19969948959906) rotate(0 73.84897559579639 0)"><path d="M0 0 C24.62 0, 123.08 0, 147.7 0 M0 0 C24.62 0, 123.08 0, 147.7 0" stroke="#1e1e1e" stroke-width="2" fill="none"></path></g></g><mask></mask><g stroke-linecap="round"><g transform="translate(213.6834006384877 209.99661604815526) rotate(0 6.161737786669619e-15 -99.4651509817819)"><path d="M0 0 C0 -33.16, 0 -165.78, 0 -198.93 M0 0 C0 -33.16, 0 -165.78, 0 -198.93" stroke="#1e1e1e" stroke-width="2" fill="none"></path></g></g><mask></mask><g stroke-linecap="round"><g transform="translate(33.00400514322723 44.842640249779095) rotate(0 0 96.70422348276408)"><path d="M0 0 C0 32.23, 0 161.17, 0 193.41 M0 0 C0 32.23, 0 161.17, 0 193.41" stroke="#1e1e1e" stroke-width="2" fill="none"></path></g></g><mask></mask><g stroke-linecap="round"><g transform="translate(32.6512463102641 238.66427557727079) rotate(0 80.39604634986776 0)"><path d="M0 0 C26.8 0, 133.99 0, 160.79 0 M0 0 C26.8 0, 133.99 0, 160.79 0" stroke="#1e1e1e" stroke-width="2" fill="none"></path></g></g><mask></mask><g stroke-linecap="round"><g transform="translate(92.51417766165369 36.31380342579777) rotate(0 0 72.13333638509114)"><path d="M0 0 C0 24.04, 0 120.22, 0 144.27 M0 0 C0 24.04, 0 120.22, 0 144.27" stroke="#1e1e1e" stroke-width="4" fill="none"></path></g></g><mask></mask><g stroke-linecap="round"><g transform="translate(92.78086060436203 180.31379325327174) rotate(0 48.933339436848954 0)"><path d="M0 0 C16.31 0, 81.56 0, 97.87 0 M0 0 C16.31 0, 81.56 0, 97.87 0" stroke="#1e1e1e" stroke-width="4" fill="none"></path></g></g><mask></mask><g stroke-linecap="round"><g transform="translate(92.3808463628256 36.04713065561549) rotate(0 48.933339436848954 0)"><path d="M0 0 C16.31 0, 81.56 0, 97.87 0 M0 0 C16.31 0, 81.56 0, 97.87 0" stroke="#1e1e1e" stroke-width="4" fill="none"></path></g></g><mask></mask><g stroke-linecap="round"><g transform="translate(191.71418986868494 180.0471306556155) rotate(0 -0.26666259765625 -71.86666361490886)"><path d="M0 0 C-0.09 -23.96, -0.44 -119.78, -0.53 -143.73 M0 0 C-0.09 -23.96, -0.44 -119.78, -0.53 -143.73" stroke="#1e1e1e" stroke-width="4" fill="none"></path></g></g><mask></mask></svg>